<?xml version="1.0" encoding="utf-8"?> <svg version="1.1" xmlns="http://www.w3.org/2000/svg" xmlns:xlink="http://www.w3.org/1999/xlink" viewBox="0 0 300 300" xml:space="preserve"><style type="text/css">.st0{clip-path:url(#SVGID_00000119811824066802462450000006585504063088493462_)}.st1{fill:#db4437}.st2{fill:url(#SVGID_00000072241212232599841860000006195952176346717863_)}.st3{clip-path:url(#SVGID_00000008827288784187000400000009515614664069198213_);fill:#3e2723;fill-opacity:.15}.st4{clip-path:url(#SVGID_00000027601431464711771380000007478962889726057373_)}.st5{fill:#0f9d58}.st6{fill:url(#SVGID_00000023274315216225935110000008326213309793801391_)}.st7{clip-path:url(#SVGID_00000113335304740891755730000015410567240291097518_);fill:#263238;fill-opacity:.15}.st8{clip-path:url(#SVGID_00000028287394659059988230000012355861560683848891_)}.st9{clip-path:url(#SVGID_00000123412688640609780270000004096439115849229736_)}.st10{fill:#ffcd40}.st11{fill:url(#SVGID_00000061450833682781901420000010341448514714560421_)}.st12{clip-path:url(#SVGID_00000147918741642684667570000002190839865515977873_)}.st13{fill:url(#SVGID_00000155846031830633322130000012667885220344001664_)}.st14{clip-path:url(#SVGID_00000090278486824499802480000010128600770339197319_)}.st15{clip-path:url(#SVGID_00000042737440403422111250000008926804923943523205_)}.st16{fill:url(#SVGID_00000143589957088070795830000007509856767873183935_)}.st17{clip-path:url(#SVGID_00000073689344163519534610000009152428052277012648_);fill:url(#SVGID_00000170270671379871952050000016838250804597687960_)}.st18{clip-path:url(#SVGID_00000032627255551987618980000012412040983133495939_)}.st19{clip-path:url(#SVGID_00000134219642074577045880000004348341436029053100_)}.st20{fill:url(#SVGID_00000024698406669874185910000012278414157199723415_)}.st21{clip-path:url(#SVGID_00000010269151978768803880000007764315463129148847_);fill:url(#SVGID_00000011000476747907352000000013333973155471623343_)}.st22{clip-path:url(#SVGID_00000043438602697102916270000004604320271574337722_);fill:url(#SVGID_00000152954555518555606680000007101786858152330144_)}.st23{clip-path:url(#SVGID_00000078043759146589785130000013551652287871706524_)}.st24{fill:#f1f1f1}.st25{fill:#4285f4}.st26{clip-path:url(#SVGID_00000070803745917611944040000005286459220395710607_)}.st27{fill:#3e2723;fill-opacity:.2}.st28{fill:#fff;fill-opacity:.1}.st29{opacity:.1;fill:#3e2723;enable-background:new}.st30{fill:#fff;fill-opacity:.2}.st31{clip-path:url(#SVGID_00000016777106417714705240000007670799131133546370_)}.st32{fill:#3e2723;fill-opacity:.15}.st33{fill:url(#SVGID_00000009582823656629136650000010806669757981082530_)}</style><g><g><defs><circle id="SVGID_1_" cx="150" cy="150" r="150"/></defs><clipPath id="SVGID_00000057129336386102043830000006340837385779791768_"><use xlink:href="#SVGID_1_" style="overflow:visible"/></clipPath><g style="clip-path:url(#SVGID_00000057129336386102043830000006340837385779791768_)"><path class="st1" d="M23.8,0v184.1H91l59-102.3h150V0H23.8z"/><linearGradient id="SVGID_00000070806607939807759660000007681745396163262358_" gradientUnits="userSpaceOnUse" x1="610.4774" y1="-889.9576" x2="968.4319" y2="-680.8644" gradientTransform="matrix(0.25 0 0 -0.25 -116.25 -108.25)"><stop offset="0" style="stop-color:#a52714;stop-opacity:.6"/><stop offset="0.66" style="stop-color:#a52714;stop-opacity:0"/></linearGradient><path style="fill:url(#SVGID_00000070806607939807759660000007681745396163262358_)" d="M23.8,0v184.1H91l59-102.3h150V0H23.8z"/></g></g><g><defs><circle id="SVGID_00000096036835386371785200000004862522457672410525_" cx="150" cy="150" r="150"/></defs><clipPath id="SVGID_00000003787096075042084580000005725028626972721322_"><use xlink:href="#SVGID_00000096036835386371785200000004862522457672410525_" style="overflow:visible"/></clipPath><path style="clip-path:url(#SVGID_00000003787096075042084580000005725028626972721322_);fill:#3e2723;fill-opacity:.15" d="
			M92.6,183.5L24.7,67.1l-1,1.7l67.4,115.6L92.6,183.5z"/></g><g><defs><circle id="SVGID_00000007424765901482376640000010783212022955291285_" cx="150" cy="150" r="150"/></defs><clipPath id="SVGID_00000044144389790690177350000017282916805524865926_"><use xlink:href="#SVGID_00000007424765901482376640000010783212022955291285_" style="overflow:visible"/></clipPath><g style="clip-path:url(#SVGID_00000044144389790690177350000017282916805524865926_)"><path class="st5" d="M0,300h142.8l66.3-66.3v-49.6H91L0,28.1V300z"/><linearGradient id="SVGID_00000108998348946029280110000006215922701223295899_" gradientUnits="userSpaceOnUse" x1="1166.4097" y1="-1499.9949" x2="768.6779" y2="-1267.0448" gradientTransform="matrix(0.25 0 0 -0.25 -116.25 -108.25)"><stop offset="0" style="stop-color:#055524;stop-opacity:.4"/><stop offset="0.33" style="stop-color:#055524;stop-opacity:0"/></linearGradient><path style="fill:url(#SVGID_00000108998348946029280110000006215922701223295899_)" d="M0,300h142.8l66.3-66.3v-49.6H91L0,28.1
				V300z"/></g></g><g><defs><circle id="SVGID_00000168077250932810699120000013237736943598588813_" cx="150" cy="150" r="150"/></defs><clipPath id="SVGID_00000086681627325354306150000006724257672159270579_"><use xlink:href="#SVGID_00000168077250932810699120000013237736943598588813_" style="overflow:visible"/></clipPath><path style="clip-path:url(#SVGID_00000086681627325354306150000006724257672159270579_);fill:#263238;fill-opacity:.15" d="
			M207.7,186.4l-1.4-0.8L140.8,300h2L207.7,186.4L207.7,186.4z"/></g><g><defs><circle id="SVGID_00000097483134647670031070000009132732064806413992_" cx="150" cy="150" r="150"/></defs><clipPath id="SVGID_00000081622772894572693700000007596518393052693643_"><use xlink:href="#SVGID_00000097483134647670031070000009132732064806413992_" style="overflow:visible"/></clipPath><g style="clip-path:url(#SVGID_00000081622772894572693700000007596518393052693643_)"><g><defs><polygon id="SVGID_00000062883046893081250340000008498047141551532715_" points="0,300 142.8,300 209.1,233.7 209.1,184.1 
						91,184.1 0,28.1 					"/></defs><clipPath id="SVGID_00000133518374975932668200000013803662609127403956_"><use xlink:href="#SVGID_00000062883046893081250340000008498047141551532715_" style="overflow:visible"/></clipPath><g style="clip-path:url(#SVGID_00000133518374975932668200000013803662609127403956_)"><path class="st10" d="M150,81.8l59.1,102.3L142.8,300H300V81.8H150z"/><linearGradient id="SVGID_00000174569083110151560850000001230183263503572097_" gradientUnits="userSpaceOnUse" x1="1241.2888" y1="-718.0309" x2="1341.441" y2="-1156.6172" gradientTransform="matrix(0.25 0 0 -0.25 -116.25 -108.25)"><stop offset="0" style="stop-color:#ea6100;stop-opacity:.3"/><stop offset="0.66" style="stop-color:#ea6100;stop-opacity:0"/></linearGradient><path style="fill:url(#SVGID_00000174569083110151560850000001230183263503572097_)" d="M150,81.8l59.1,102.3L142.8,300H300
						V81.8H150z"/></g></g></g></g><g><defs><circle id="SVGID_00000125583828811770546360000013551188333176136867_" cx="150" cy="150" r="150"/></defs><clipPath id="SVGID_00000127752437753141619240000009270885696349062557_"><use xlink:href="#SVGID_00000125583828811770546360000013551188333176136867_" style="overflow:visible"/></clipPath><g style="clip-path:url(#SVGID_00000127752437753141619240000009270885696349062557_)"><path class="st10" d="M150,81.8l59.1,102.3L142.8,300H300V81.8H150z"/><linearGradient id="SVGID_00000006692960357022957770000004280370462142208162_" gradientUnits="userSpaceOnUse" x1="1241.2888" y1="-718.0309" x2="1341.441" y2="-1156.6172" gradientTransform="matrix(0.25 0 0 -0.25 -116.25 -108.25)"><stop offset="0" style="stop-color:#ea6100;stop-opacity:.3"/><stop offset="0.66" style="stop-color:#ea6100;stop-opacity:0"/></linearGradient><path style="fill:url(#SVGID_00000006692960357022957770000004280370462142208162_)" d="M150,81.8l59.1,102.3L142.8,300H300
				V81.8H150z"/></g></g><g><defs><circle id="SVGID_00000035507325446986112790000000757364077782650270_" cx="150" cy="150" r="150"/></defs><clipPath id="SVGID_00000139991944370469593140000016654701886545979794_"><use xlink:href="#SVGID_00000035507325446986112790000000757364077782650270_" style="overflow:visible"/></clipPath><g style="clip-path:url(#SVGID_00000139991944370469593140000016654701886545979794_)"><g><defs><polygon id="SVGID_00000111871937919979321030000016543933029375481237_" points="150,81.8 209.1,184.1 142.8,300 300,300 
						300,81.8 					"/></defs><clipPath id="SVGID_00000173120744185186796620000012089327523923016611_"><use xlink:href="#SVGID_00000111871937919979321030000016543933029375481237_" style="overflow:visible"/></clipPath><g style="clip-path:url(#SVGID_00000173120744185186796620000012089327523923016611_)"><path class="st1" d="M23.8,0v184.1H91l59-102.3h150V0H23.8z"/><linearGradient id="SVGID_00000150818936059521077650000002888960876818532275_" gradientUnits="userSpaceOnUse" x1="610.4774" y1="-889.9576" x2="968.4319" y2="-680.8644" gradientTransform="matrix(0.25 0 0 -0.25 -116.25 -108.25)"><stop offset="0" style="stop-color:#a52714;stop-opacity:.6"/><stop offset="0.66" style="stop-color:#a52714;stop-opacity:0"/></linearGradient><path style="fill:url(#SVGID_00000150818936059521077650000002888960876818532275_)" d="M23.8,0v184.1H91l59-102.3h150V0H23.8
						z"/></g></g></g></g><g><defs><circle id="SVGID_00000075156429360643718360000004508884548356277133_" cx="150" cy="150" r="150"/></defs><clipPath id="SVGID_00000090977299127222952670000002274701668438137216_"><use xlink:href="#SVGID_00000075156429360643718360000004508884548356277133_" style="overflow:visible"/></clipPath><radialGradient id="SVGID_00000067935373021520267320000014507819703882068401_" cx="1038.9272" cy="-759.9182" r="573.2591" gradientTransform="matrix(0.25 0 0 -0.25 -116.25 -108.25)" gradientUnits="userSpaceOnUse"><stop offset="0" style="stop-color:#3e2723;stop-opacity:.2"/><stop offset="1" style="stop-color:#3e2723;stop-opacity:0"/></radialGradient><path style="clip-path:url(#SVGID_00000090977299127222952670000002274701668438137216_);fill:url(#SVGID_00000067935373021520267320000014507819703882068401_)" d="
			M150,81.8v35.7l133.6-35.7H150z"/></g><g><defs><circle id="SVGID_00000018236663677775052960000014310780647601266867_" cx="150" cy="150" r="150"/></defs><clipPath id="SVGID_00000098915354003971744400000011534100893853730988_"><use xlink:href="#SVGID_00000018236663677775052960000014310780647601266867_" style="overflow:visible"/></clipPath><g style="clip-path:url(#SVGID_00000098915354003971744400000011534100893853730988_)"><g><defs><polygon id="SVGID_00000102539896535430884730000007130108100112706730_" points="23.8,0 23.8,68.8 91,184.1 150,81.8 
						300,81.8 300,0 					"/></defs><clipPath id="SVGID_00000068663483234029862820000001944152952181874336_"><use xlink:href="#SVGID_00000102539896535430884730000007130108100112706730_" style="overflow:visible"/></clipPath><g style="clip-path:url(#SVGID_00000068663483234029862820000001944152952181874336_)"><path class="st5" d="M0,300h142.8l66.3-66.3v-49.6H91L0,28.1V300z"/><linearGradient id="SVGID_00000091714598501951044620000013454690863247937183_" gradientUnits="userSpaceOnUse" x1="1166.4097" y1="-1499.9949" x2="768.6779" y2="-1267.0448" gradientTransform="matrix(0.25 0 0 -0.25 -116.25 -108.25)"><stop offset="0" style="stop-color:#055524;stop-opacity:.4"/><stop offset="0.33" style="stop-color:#055524;stop-opacity:0"/></linearGradient><path style="fill:url(#SVGID_00000091714598501951044620000013454690863247937183_)" d="M0,300h142.8l66.3-66.3v-49.6H91
						L0,28.1V300z"/></g></g></g></g><g><defs><circle id="SVGID_00000161606704048745972550000014131710968805941926_" cx="150" cy="150" r="150"/></defs><clipPath id="SVGID_00000166670532450084606680000007164344452661879955_"><use xlink:href="#SVGID_00000161606704048745972550000014131710968805941926_" style="overflow:visible"/></clipPath><radialGradient id="SVGID_00000085966695957239410140000003601657229582180788_" cx="559.6023" cy="-709.2727" r="532.1182" gradientTransform="matrix(0.25 0 0 -0.25 -116.25 -108.25)" gradientUnits="userSpaceOnUse"><stop offset="0" style="stop-color:#3e2723;stop-opacity:.2"/><stop offset="1" style="stop-color:#3e2723;stop-opacity:0"/></radialGradient><path style="clip-path:url(#SVGID_00000166670532450084606680000007164344452661879955_);fill:url(#SVGID_00000085966695957239410140000003601657229582180788_)" d="
			M23.8,68.9l97.6,97.6L91,184.1L23.8,68.9z"/></g><g><defs><circle id="SVGID_00000141416562121053542940000017605197404683891646_" cx="150" cy="150" r="150"/></defs><clipPath id="SVGID_00000111892376965711271390000010593884272930288060_"><use xlink:href="#SVGID_00000141416562121053542940000017605197404683891646_" style="overflow:visible"/></clipPath><radialGradient id="SVGID_00000063598872386894504540000016644319443971300491_" cx="1063.9364" cy="-1033.9409" r="599.1136" gradientTransform="matrix(0.25 0 0 -0.25 -116.25 -108.25)" gradientUnits="userSpaceOnUse"><stop offset="0" style="stop-color:#263238;stop-opacity:.2"/><stop offset="1" style="stop-color:#263238;stop-opacity:0"/></radialGradient><path style="clip-path:url(#SVGID_00000111892376965711271390000010593884272930288060_);fill:url(#SVGID_00000063598872386894504540000016644319443971300491_)" d="
			M142.9,299.8l35.7-133.3l30.4,17.6L142.9,299.8z"/></g><g><defs><circle id="SVGID_00000067958812095548229600000009782994682324281735_" cx="150" cy="150" r="150"/></defs><clipPath id="SVGID_00000169544408469140521540000017782005529778949011_"><use xlink:href="#SVGID_00000067958812095548229600000009782994682324281735_" style="overflow:visible"/></clipPath><g style="clip-path:url(#SVGID_00000169544408469140521540000017782005529778949011_)"><circle class="st24" cx="150" cy="150" r="68.2"/><circle class="st25" cx="150" cy="150" r="54.5"/></g></g><g><defs><circle id="SVGID_00000007390088642960257730000014528167047253523375_" cx="150" cy="150" r="150"/></defs><clipPath id="SVGID_00000089559609755767749610000003213297717258730670_"><use xlink:href="#SVGID_00000007390088642960257730000014528167047253523375_" style="overflow:visible"/></clipPath><g style="clip-path:url(#SVGID_00000089559609755767749610000003213297717258730670_)"><path class="st27" d="M150,80.1c-37.7,0-68.2,30.5-68.2,68.2v1.7c0-37.7,30.5-68.2,68.2-68.2h150v-1.7H150z"/><path class="st28" d="M209,184.1c-11.8,20.4-33.8,34.1-59,34.1c-25.2,0-47.2-13.7-59-34.1h-0.1L0,28.1v1.7l91,156H91
				c11.8,20.4,33.8,34.1,59,34.1c25.2,0,47.2-13.7,59-34.1h0.1v-1.7H209z"/><path class="st29" d="M151.7,81.8c-0.3,0-0.6,0-0.9,0.1c37.3,0.5,67.3,30.8,67.3,68.1s-30.1,67.7-67.3,68.1
				c0.3,0,0.6,0.1,0.9,0.1c37.7,0,68.2-30.5,68.2-68.2S189.4,81.8,151.7,81.8z"/><path class="st30" d="M209.7,186.4c5.8-10,9.2-21.6,9.2-34c0-7.2-1.1-14.1-3.2-20.6c1.6,5.8,2.6,11.9,2.6,18.3
				c0,12.4-3.4,24-9.2,34l0,0.1L142.8,300h2L209.7,186.4L209.7,186.4z"/></g></g><g><defs><circle id="SVGID_00000156579682803108049120000016404696855188063616_" cx="150" cy="150" r="150"/></defs><clipPath id="SVGID_00000067236259051634640710000007113341082722081956_"><use xlink:href="#SVGID_00000156579682803108049120000016404696855188063616_" style="overflow:visible"/></clipPath><g style="clip-path:url(#SVGID_00000067236259051634640710000007113341082722081956_)"><path class="st30" d="M150,1.7c82.6,0,149.5,66.7,150,149.1c0-0.3,0-0.6,0-0.9C300,67.2,232.8,0,150,0S0,67.2,0,150
				c0,0.3,0,0.6,0,0.9C0.5,68.4,67.4,1.7,150,1.7z"/><path class="st32" d="M150,298.3c82.6,0,149.5-66.7,150-149.1c0,0.3,0,0.6,0,0.9c0,82.8-67.2,150-150,150S0,232.8,0,150
				c0-0.3,0-0.6,0-0.9C0.5,231.6,67.4,298.3,150,298.3z"/></g></g><radialGradient id="SVGID_00000116211855275994564830000011620573879009214371_" cx="644.2227" cy="-596.7318" r="1205.0864" gradientTransform="matrix(0.25 0 0 -0.25 -116.25 -108.25)" gradientUnits="userSpaceOnUse"><stop offset="0" style="stop-color:#fff;stop-opacity:.1"/><stop offset="1" style="stop-color:#fff;stop-opacity:0"/></radialGradient><circle style="fill:url(#SVGID_00000116211855275994564830000011620573879009214371_)" cx="150" cy="150" r="150"/></g></svg>