<?xml version="1.0" encoding="utf-8"?> <svg version="1.1" xmlns="http://www.w3.org/2000/svg" xmlns:xlink="http://www.w3.org/1999/xlink" viewBox="0 0 300 300" xml:space="preserve"><style type="text/css">.st0{fill:url(#SVGID_1_)}.st1{fill:url(#SVGID_00000125598005326555460030000001837725298078104978_)}.st2{fill:url(#SVGID_00000147221108005707817960000013890508680178969767_)}.st3{fill:url(#SVGID_00000152240796678675349380000010945352879423107258_)}.st4{fill:url(#SVGID_00000098204712201280190050000013306387789769935493_)}.st5{fill:url(#SVGID_00000113347944946197238510000014362150238370415785_)}.st6{fill:url(#SVGID_00000013168022648448691170000011126540993986517902_)}.st7{fill:url(#SVGID_00000063620061115170578340000017071129515628437898_)}.st8{fill:url(#SVGID_00000129199740021380800900000003859618901325011383_)}.st9{fill:url(#SVGID_00000042714950137903461570000007761618195675419527_)}.st10{fill:url(#SVGID_00000052805069440296606110000008331920366372230563_)}.st11{fill:url(#SVGID_00000014602252897589817880000003225244917842908032_)}</style><g><linearGradient id="SVGID_1_" gradientUnits="userSpaceOnUse" x1="265.4412" y1="255.5422" x2="24.0703" y2="22.6648" gradientTransform="matrix(1 0 0 -1 0 302)"><stop offset="4.800000e-02" style="stop-color:#fff44f"/><stop offset="0.111" style="stop-color:#ffe847"/><stop offset="0.225" style="stop-color:#ffc830"/><stop offset="0.368" style="stop-color:#ff980e"/><stop offset="0.401" style="stop-color:#ff8b16"/><stop offset="0.462" style="stop-color:#ff672a"/><stop offset="0.534" style="stop-color:#ff3647"/><stop offset="0.705" style="stop-color:#e31587"/></linearGradient><path class="st0" d="M284.7,100.6c-6.3-15.2-19.1-31.6-29.2-36.8c7.2,13.9,12.1,28.8,14.7,44.1l0,0.2c-16.4-41-44.3-57.5-67.1-93.5
		c-1.2-1.8-2.3-3.7-3.4-5.6c-0.6-1-1.1-2-1.6-3c-0.9-1.8-1.7-3.8-2.2-5.8c0-0.2-0.1-0.4-0.3-0.4c-0.1,0-0.2,0-0.3,0c0,0,0,0-0.1,0
		c0,0-0.1,0-0.1,0.1l0.1-0.1c-36.5,21.4-48.9,61-50.1,80.8c-14.6,1-28.5,6.4-40,15.4c-1.2-1-2.5-2-3.8-2.8
		c-3.3-11.6-3.5-23.9-0.4-35.5c-13.4,6.5-25.3,15.7-35,27H66c-5.8-7.3-5.4-31.4-5-36.4c-1.7,0.7-3.3,1.5-4.9,2.6
		c-5.1,3.6-9.8,7.7-14.2,12.2c-5,5-9.5,10.5-13.6,16.3v0v0c-9.3,13.3-16,28.2-19.5,44.1l-0.2,1c-0.5,3-1,6-1.4,9.1
		c0,0.1,0,0.2,0,0.3c-1.3,6.6-2.1,13.3-2.4,20v0.8C4.9,235,70,300.1,150.3,300c70.7-0.1,131.1-51,143.2-120.7
		c0.2-1.9,0.4-3.7,0.7-5.6C297.1,148.9,293.9,123.8,284.7,100.6z M117.1,214.5c0.7,0.3,1.3,0.7,2,1l0.1,0.1
		C118.5,215.2,117.8,214.8,117.1,214.5z M270.3,108.3v-0.1V108.3L270.3,108.3z"/><radialGradient id="SVGID_00000011717035703782917180000010594290932316283835_" cx="-7720.6929" cy="8792.7061" r="303.1139" gradientTransform="matrix(1 0 0 -1 7975 8826)" gradientUnits="userSpaceOnUse"><stop offset="0.129" style="stop-color:#ffbd4f"/><stop offset="0.186" style="stop-color:#ffac31"/><stop offset="0.247" style="stop-color:#ff9d17"/><stop offset="0.283" style="stop-color:#ff980e"/><stop offset="0.403" style="stop-color:#ff563b"/><stop offset="0.467" style="stop-color:#ff3750"/><stop offset="0.71" style="stop-color:#f5156c"/><stop offset="0.782" style="stop-color:#eb0878"/><stop offset="0.86" style="stop-color:#e50080"/></radialGradient><path style="fill:url(#SVGID_00000011717035703782917180000010594290932316283835_)" d="M284.7,100.6
		c-6.3-15.2-19.1-31.6-29.2-36.8c7.2,13.9,12.1,28.8,14.7,44.1v0.1l0,0.2c11.2,32.1,9.6,67.2-4.5,98.1
		c-16.7,35.8-57,72.4-120.1,70.6C77.4,275.1,17.3,224.5,6.1,158.2c-2-10.5,0-15.8,1-24.3c-1.4,6.6-2.2,13.3-2.3,20.1v0.8
		C4.9,235,70,300.1,150.3,300c70.7-0.1,131.1-51,143.2-120.7c0.2-1.9,0.4-3.7,0.7-5.6C297.1,148.9,293.9,123.8,284.7,100.6z"/><radialGradient id="SVGID_00000042706247930106402050000008802673466874829223_" cx="-7831.4536" cy="8668.7832" r="303.1139" gradientTransform="matrix(1 0 0 -1 7975 8826)" gradientUnits="userSpaceOnUse"><stop offset="0.3" style="stop-color:#960e18"/><stop offset="0.351" style="stop-color:#b11927;stop-opacity:.74"/><stop offset="0.435" style="stop-color:#db293d;stop-opacity:.343"/><stop offset="0.497" style="stop-color:#f5334b;stop-opacity:9.4e-02"/><stop offset="0.53" style="stop-color:#ff3750;stop-opacity:0"/></radialGradient><path style="fill:url(#SVGID_00000042706247930106402050000008802673466874829223_)" d="M284.7,100.6
		c-6.3-15.2-19.1-31.6-29.2-36.8c7.2,13.9,12.1,28.8,14.7,44.1v0.1l0,0.2c11.2,32.1,9.6,67.2-4.5,98.1
		c-16.7,35.8-57,72.4-120.1,70.6C77.4,275.1,17.3,224.5,6.1,158.2c-2-10.5,0-15.8,1-24.3c-1.4,6.6-2.2,13.3-2.3,20.1v0.8
		C4.9,235,70,300.1,150.3,300c70.7-0.1,131.1-51,143.2-120.7c0.2-1.9,0.4-3.7,0.7-5.6C297.1,148.9,293.9,123.8,284.7,100.6z"/><radialGradient id="SVGID_00000106119596328438270050000000153077063844183481_" cx="-7794.9082" cy="8861.4941" r="219.5849" gradientTransform="matrix(1 0 0 -1 7975 8826)" gradientUnits="userSpaceOnUse"><stop offset="0.132" style="stop-color:#fff44f"/><stop offset="0.252" style="stop-color:#ffdc3e"/><stop offset="0.506" style="stop-color:#ff9d12"/><stop offset="0.526" style="stop-color:#ff980e"/></radialGradient><path style="fill:url(#SVGID_00000106119596328438270050000000153077063844183481_)" d="M214,117.7c0.3,0.2,0.6,0.4,0.9,0.7
		c-3.7-6.5-8.2-12.4-13.5-17.6c-45.2-45.2-11.8-98-6.2-100.7l0.1-0.1c-36.5,21.4-48.9,61-50.1,80.8c1.7-0.1,3.4-0.3,5.1-0.3
		C176.7,80.6,201,94.8,214,117.7z"/><radialGradient id="SVGID_00000046297634100300362780000001113082676166297510_" cx="-7864.981" cy="8589.6094" r="144.3258" gradientTransform="matrix(1 0 0 -1 7975 8826)" gradientUnits="userSpaceOnUse"><stop offset="0.353" style="stop-color:#3a8ee6"/><stop offset="0.472" style="stop-color:#5c79f0"/><stop offset="0.669" style="stop-color:#9059ff"/><stop offset="1" style="stop-color:#c139e6"/></radialGradient><path style="fill:url(#SVGID_00000046297634100300362780000001113082676166297510_)" d="M150.4,126.8c-0.2,3.6-13,16.1-17.5,16.1
		c-41.3,0-48.1,25-48.1,25c1.8,21.1,16.5,38.4,34.2,47.6c0.8,0.4,1.6,0.8,2.5,1.2c1.4,0.6,2.8,1.2,4.3,1.7
		c6.1,2.2,12.5,3.4,18.9,3.7c72.5,3.4,86.5-86.7,34.2-112.8c12.3-1.6,24.8,1.4,35.1,8.5c-13-23-37.3-37.2-63.7-37.2
		c-1.7,0-3.4,0.1-5.1,0.3c-14.6,1-28.5,6.4-40,15.4c2.2,1.9,4.7,4.4,10,9.6C125.1,115.5,150.4,125.6,150.4,126.8z"/><radialGradient id="SVGID_00000055669053789537289620000005956548909671678891_" cx="-7906.1904" cy="8699.8594" r="76.5203" gradientTransform="matrix(0.972 -0.235 -0.275 -1.138 10237.3867 8174.8589)" gradientUnits="userSpaceOnUse"><stop offset="0.206" style="stop-color:#9059ff;stop-opacity:0"/><stop offset="0.278" style="stop-color:#8c4ff3;stop-opacity:6.4e-02"/><stop offset="0.747" style="stop-color:#7716a8;stop-opacity:.45"/><stop offset="0.975" style="stop-color:#6e008b;stop-opacity:.6"/></radialGradient><path style="fill:url(#SVGID_00000055669053789537289620000005956548909671678891_)" d="M150.4,126.8c-0.2,3.6-13,16.1-17.5,16.1
		c-41.3,0-48.1,25-48.1,25c1.8,21.1,16.5,38.4,34.2,47.6c0.8,0.4,1.6,0.8,2.5,1.2c1.4,0.6,2.8,1.2,4.3,1.7
		c6.1,2.2,12.5,3.4,18.9,3.7c72.5,3.4,86.5-86.7,34.2-112.8c12.3-1.6,24.8,1.4,35.1,8.5c-13-23-37.3-37.2-63.7-37.2
		c-1.7,0-3.4,0.1-5.1,0.3c-14.6,1-28.5,6.4-40,15.4c2.2,1.9,4.7,4.4,10,9.6C125.1,115.5,150.4,125.6,150.4,126.8z"/><radialGradient id="SVGID_00000070094901459074417460000000367097786414251175_" cx="-7835.2803" cy="8805.1074" r="103.8279" gradientTransform="matrix(1 0 0 -1 7975 8826)" gradientUnits="userSpaceOnUse"><stop offset="0" style="stop-color:#ffe226"/><stop offset="0.121" style="stop-color:#ffdb27"/><stop offset="0.295" style="stop-color:#ffc82a"/><stop offset="0.502" style="stop-color:#ffa930"/><stop offset="0.732" style="stop-color:#ff7e37"/><stop offset="0.792" style="stop-color:#ff7139"/></radialGradient><path style="fill:url(#SVGID_00000070094901459074417460000000367097786414251175_)" d="M98.4,91.4c1.2,0.8,2.1,1.4,3,2
		C98.1,81.8,98,69.5,101,57.8c-13.4,6.5-25.3,15.7-35,27C66.7,84.9,87.8,84.5,98.4,91.4z"/><radialGradient id="SVGID_00000023977464510091233680000006423245920713170068_" cx="-7753.6694" cy="8870.9639" r="442.9867" gradientTransform="matrix(1 0 0 -1 7975 8826)" gradientUnits="userSpaceOnUse"><stop offset="0.113" style="stop-color:#fff44f"/><stop offset="0.456" style="stop-color:#ff980e"/><stop offset="0.622" style="stop-color:#ff5634"/><stop offset="0.716" style="stop-color:#ff3647"/><stop offset="0.904" style="stop-color:#e31587"/></radialGradient><path style="fill:url(#SVGID_00000023977464510091233680000006423245920713170068_)" d="M6.1,158.2
		C17.3,224.5,77.4,275.1,145.6,277c63.1,1.8,103.5-34.9,120.1-70.6c14.1-30.9,15.7-66.1,4.5-98.1v-0.1c0-0.1,0-0.2,0-0.1l0,0.2
		c5.2,33.7-12,66.3-38.7,88.4l-0.1,0.2c-52.2,42.5-102.1,25.6-112.2,18.8c-0.7-0.3-1.4-0.7-2.1-1.1c-30.4-14.5-43-42.3-40.3-66
		c-14.8,0.2-28.3-8.3-34.4-21.7c16.2-9.9,36.5-10.8,53.5-2.1c17.2,7.8,36.8,8.6,54.6,2.1c-0.1-1.2-25.4-11.3-35.2-21
		c-5.3-5.2-7.8-7.7-10-9.6c-1.2-1-2.5-2-3.8-2.8c-0.9-0.6-1.8-1.2-3-2c-10.6-6.9-31.7-6.5-32.4-6.5H66c-5.8-7.3-5.4-31.4-5-36.4
		c-1.7,0.7-3.3,1.5-4.9,2.6c-5.1,3.6-9.8,7.7-14.2,12.2c-5,5-9.6,10.5-13.6,16.3v0v0c-9.3,13.3-16,28.2-19.5,44.1
		C8.7,123.9,3.6,146.4,6.1,158.2z"/><radialGradient id="SVGID_00000182495928388069581490000018379568233447818398_" cx="-7823.0244" cy="9472.1787" r="324.5052" gradientTransform="matrix(0.105 0.995 0.653 -6.900000e-02 -5179.9199 8417.1592)" gradientUnits="userSpaceOnUse"><stop offset="0" style="stop-color:#fff44f"/><stop offset="6.000000e-02" style="stop-color:#ffe847"/><stop offset="0.168" style="stop-color:#ffc830"/><stop offset="0.304" style="stop-color:#ff980e"/><stop offset="0.356" style="stop-color:#ff8b16"/><stop offset="0.455" style="stop-color:#ff672a"/><stop offset="0.57" style="stop-color:#ff3647"/><stop offset="0.737" style="stop-color:#e31587"/></radialGradient><path style="fill:url(#SVGID_00000182495928388069581490000018379568233447818398_)" d="M201.5,100.8c5.3,5.2,9.9,11.1,13.5,17.6
		c0.8,0.6,1.5,1.2,2.2,1.8c33,30.4,15.7,73.3,14.4,76.4c26.8-22.1,43.9-54.7,38.7-88.4c-16.4-41-44.3-57.5-67.1-93.5
		c-1.2-1.8-2.3-3.7-3.4-5.6c-0.6-1-1.1-2-1.6-3c-0.9-1.8-1.7-3.8-2.2-5.8c0-0.2-0.1-0.4-0.3-0.4c-0.1,0-0.2,0-0.3,0c0,0,0,0-0.1,0
		c0,0-0.1,0-0.1,0.1C189.6,2.8,156.3,55.6,201.5,100.8z"/><radialGradient id="SVGID_00000076594824671233657330000013452099285224492947_" cx="-7837.7256" cy="8766.6504" r="276.5642" gradientTransform="matrix(1 0 0 -1 7975 8826)" gradientUnits="userSpaceOnUse"><stop offset="0.137" style="stop-color:#fff44f"/><stop offset="0.48" style="stop-color:#ff980e"/><stop offset="0.592" style="stop-color:#ff5634"/><stop offset="0.655" style="stop-color:#ff3647"/><stop offset="0.904" style="stop-color:#e31587"/></radialGradient><path style="fill:url(#SVGID_00000076594824671233657330000013452099285224492947_)" d="M217.1,120.2c-0.7-0.6-1.4-1.2-2.2-1.8
		c-0.3-0.2-0.6-0.4-0.9-0.7c-10.2-7.1-22.7-10.1-35.1-8.5c52.3,26.1,38.3,116.2-34.2,112.8c-6.5-0.3-12.8-1.5-18.9-3.7
		c-1.4-0.5-2.8-1.1-4.3-1.7c-0.8-0.4-1.6-0.8-2.5-1.2l0.1,0.1c10.1,6.9,60,23.8,112.2-18.8l0.1-0.2
		C232.8,193.5,250.1,150.6,217.1,120.2z"/><radialGradient id="SVGID_00000098943458474433558320000009036174172637214877_" cx="-7764.7207" cy="8750.4639" r="302.6975" gradientTransform="matrix(1 0 0 -1 7975 8826)" gradientUnits="userSpaceOnUse"><stop offset="9.400000e-02" style="stop-color:#fff44f"/><stop offset="0.231" style="stop-color:#ffe141"/><stop offset="0.509" style="stop-color:#ffaf1e"/><stop offset="0.626" style="stop-color:#ff980e"/></radialGradient><path style="fill:url(#SVGID_00000098943458474433558320000009036174172637214877_)" d="M84.9,167.9c0,0,6.7-25,48.1-25
		c4.5,0,17.3-12.5,17.5-16.1c-17.8,6.4-37.4,5.7-54.6-2.1c-17-8.6-37.2-7.8-53.5,2.1c6.2,13.4,19.7,21.9,34.4,21.7
		c-2.7,23.8,9.9,51.5,40.3,66c0.7,0.3,1.3,0.7,2,1C101.4,206.3,86.7,188.9,84.9,167.9z"/><linearGradient id="SVGID_00000113355543562549918250000001412197608802706336_" gradientUnits="userSpaceOnUse" x1="262.5443" y1="256.784" x2="57.162" y2="51.4055" gradientTransform="matrix(1 0 0 -1 0 302)"><stop offset="0.167" style="stop-color:#fff44f;stop-opacity:.8"/><stop offset="0.266" style="stop-color:#fff44f;stop-opacity:.634"/><stop offset="0.489" style="stop-color:#fff44f;stop-opacity:.217"/><stop offset="0.6" style="stop-color:#fff44f;stop-opacity:0"/></linearGradient><path style="fill:url(#SVGID_00000113355543562549918250000001412197608802706336_)" d="M284.7,100.6
		c-6.3-15.2-19.1-31.6-29.2-36.8c7.2,13.9,12.1,28.8,14.7,44.1l0,0.2c-16.4-41-44.3-57.5-67.1-93.5c-1.2-1.8-2.3-3.7-3.4-5.6
		c-0.6-1-1.1-2-1.6-3c-0.9-1.8-1.7-3.8-2.2-5.8c0-0.2-0.1-0.4-0.3-0.4c-0.1,0-0.2,0-0.3,0c0,0,0,0-0.1,0c0,0-0.1,0-0.1,0.1l0.1-0.1
		c-36.5,21.4-48.9,61-50.1,80.8c1.7-0.1,3.4-0.3,5.1-0.3c26.4,0,50.7,14.3,63.7,37.2c-10.2-7.1-22.7-10.1-35.1-8.5
		c52.3,26.1,38.3,116.2-34.2,112.8c-6.5-0.3-12.8-1.5-18.9-3.7c-1.4-0.5-2.8-1.1-4.3-1.7c-0.8-0.4-1.6-0.8-2.5-1.2l0.1,0.1
		c-0.7-0.3-1.4-0.7-2.1-1.1c0.7,0.3,1.3,0.7,2,1c-17.8-9.2-32.4-26.5-34.2-47.6c0,0,6.7-25,48.1-25c4.5,0,17.3-12.5,17.5-16.1
		c-0.1-1.2-25.4-11.3-35.2-21c-5.3-5.2-7.8-7.7-10-9.6c-1.2-1-2.5-2-3.8-2.8c-3.3-11.6-3.5-23.9-0.4-35.5c-13.4,6.5-25.3,15.7-35,27
		H66c-5.8-7.3-5.4-31.4-5-36.4c-1.7,0.7-3.3,1.5-4.9,2.6c-5.1,3.6-9.8,7.7-14.2,12.2c-5,5-9.5,10.5-13.6,16.3v0v0
		c-9.3,13.3-16,28.2-19.5,44.1l-0.2,1c-0.3,1.3-1.5,7.8-1.7,9.2c0,0.1,0-0.1,0,0c-1.1,6.7-1.8,13.5-2.1,20.3v0.8
		C4.9,235,70,300.1,150.3,300c70.7-0.1,131.1-51,143.2-120.7c0.2-1.9,0.4-3.7,0.7-5.6C297.1,148.9,293.9,123.8,284.7,100.6z
		 M270.3,108.1l0,0.2L270.3,108.1z"/></g></svg>