<?xml version="1.0" encoding="utf-8"?> <svg version="1.1" xmlns="http://www.w3.org/2000/svg" xmlns:xlink="http://www.w3.org/1999/xlink" viewBox="0 0 300 300" xml:space="preserve"><style type="text/css">.st0{fill:#e3b942}.st1{fill:#f2f2f2}.st2{fill:#3f4a43}</style><g><circle class="st0" cx="150" cy="150" r="150"/><g><path class="st1" d="M275.4,40.4v218.1H57.4V40.4H275.4 M289.4,26.4H43.4v246.1h246.1V26.4L289.4,26.4z"/></g><circle class="st2" cx="51.5" cy="198.7" r="24"/><path class="st1" d="M162.5,102.5c0,23.6,0,59.1,0,106.4c0,3.3-1.1,6.1-3.4,8.3c-2.4,2.4-5.1,3.5-8.3,3.5c-10.6,0-26.4,0-47.3,0
		c-3.3,0-6.1-1.2-8.3-3.5c-2.4-2.2-3.5-5-3.5-8.3c0-2.6,0-5.8,0-9.8c0-4,0-8.6,0-13.8c5.2,0,13.1,0,23.6,0c0,2.6,0,6.5,0,11.9
		c5.3,0,13.3,0,23.8,0c0-21.1,0-52.6,0-94.7C144.1,102.5,152,102.5,162.5,102.5z"/><path class="st1" d="M233.6,138c0-2.7,0-6.6,0-11.9c-5.2,0-13.2,0-23.8,0c0,5.2,0,13.2,0,23.8c7.9,0,19.8,0,35.6,0
		c3.2,0,6,1.1,8.3,3.4c2.2,2.4,3.4,5.1,3.4,8.3c0,10.6,0,26.4,0,47.3c0,3.3-1.1,6.1-3.4,8.3c-2.4,2.4-5.1,3.5-8.3,3.5
		c-10.6,0-26.4,0-47.3,0c-3.3,0-6.1-1.2-8.3-3.5c-2.4-2.2-3.5-5-3.5-8.3c0-5.2,0-13.1,0-23.6c5.2,0,13.1,0,23.6,0
		c0,2.6,0,6.5,0,11.9c5.3,0,13.3,0,23.8,0c0-5.3,0-13.3,0-23.8c-7.9,0-19.7,0-35.5,0c-3.3,0-6.1-1.1-8.3-3.4
		c-2.4-2.4-3.5-5.2-3.5-8.5c0-5.2,0-11.8,0-19.7c0-7.9,0-17.1,0-27.6c0-3.2,1.2-6,3.5-8.3c2.2-2.2,5-3.4,8.3-3.4
		c10.5,0,26.3,0,47.3,0c3.2,0,6,1.1,8.3,3.4c2.2,2.4,3.4,5.1,3.4,8.3c0,5.4,0,13.3,0,23.8C252,138,244.1,138,233.6,138z"/></g></svg>